<?xml version="1.0" standalone="no"?>
<!DOCTYPE svg PUBLIC "-//W3C//DTD SVG 20010904//EN"
 "http://www.w3.org/TR/2001/REC-SVG-20010904/DTD/svg10.dtd">
<svg version="1.0" xmlns="http://www.w3.org/2000/svg"
 width="120.000000pt" height="120.000000pt" viewBox="0 0 120.000000 120.000000"
 preserveAspectRatio="xMidYMid meet">

<g transform="translate(0.000000,120.000000) scale(0.100000,-0.100000)"
fill="none" stroke="none">
<path d="M0 600 l0 -600 600 0 600 0 0 600 0 600 -600 0 -600 0 0 -600z m779
461 c55 -28 74 -61 74 -128 0 -67 -32 -139 -90 -204 l-36 -40 82 -76 c146
-135 167 -229 71 -323 -81 -79 -224 -135 -492 -194 l-28 -6 0 480 0 480 25 10
c83 31 334 32 394 1z"/>
<path d="M543 883 c-14 -5 -15 -56 -4 -107 l6 -29 52 42 c55 43 78 75 68 91
-6 10 -100 13 -122 3z"/>
<path d="M537 493 c-9 -8 -9 -147 -1 -156 8 -8 61 12 114 43 36 21 46 32 48
58 3 29 1 32 -49 46 -55 17 -101 20 -112 9z"/>
</g>
</svg>
